<svg id="Layer_1" data-name="Layer 1" xmlns="http://www.w3.org/2000/svg" viewBox="0 0 2248.5 1869.21"><defs><style>.cls-1{fill:#00b7ff;stroke:#00b7ff;}.cls-1,.cls-2{stroke-miterlimit:10;}.cls-2{stroke:#000;}</style></defs><title>logo</title><polygon class="cls-1" points="577.8 263.02 955.01 59.19 563.74 949.5 870.66 949.5 1165.87 244.28 1470.45 59.19 779.29 1867.93 641.05 1572.72 798.03 1155.68 460.65 1155.68 167.78 1867.93 29.55 1591.46 577.8 263.02"/><polyline class="cls-1" points="779.29 1868.69 1014.17 1868.69 1043.67 1793.63 1342.03 1034.35 1501.07 924.25 1863.19 924.25 2073.6 740.75 1444.91 739.08 1548.59 441.49 1696.81 332.14 2073.6 332.14 2247.32 153.53 1649.92 153.53 1432.56 155.98"/><polygon class="cls-2" points="548.8 205.02 926.01 1.19 534.74 891.5 841.66 891.5 1136.87 186.28 1441.45 1.19 750.29 1809.93 612.05 1514.72 769.03 1097.68 431.65 1097.68 138.78 1809.93 0.55 1533.46 548.8 205.02"/><polyline class="cls-2" points="750.29 1810.69 985.17 1810.69 1014.67 1735.63 1313.03 976.35 1472.07 866.25 1834.19 866.25 2044.6 682.75 1415.91 681.08 1519.59 383.49 1667.81 274.14 2044.6 274.14 2218.32 95.53 1620.92 95.53 1403.56 97.98"/></svg>